inDegrees=yes
name=ik_OwnShooting_orientations.mot
DataType=double
version=3
OpenSimVersion=4.3-2021-08-27-4bc7ad9
endheader
time	pelvis_tilt	pelvis_list	pelvis_rotation	pelvis_tx	pelvis_ty	pelvis_tz	hip_flexion_r	hip_adduction_r	hip_rotation_r	knee_angle_r	knee_angle_r_beta	ankle_angle_r	subtalar_angle_r	mtp_angle_r	hip_flexion_l	hip_adduction_l	hip_rotation_l	knee_angle_l	knee_angle_l_beta	ankle_angle_l	subtalar_angle_l	mtp_angle_l	lumbar_extension	lumbar_bending	lumbar_rotation	arm_flex_r	arm_add_r	arm_rot_r	elbow_flex_r	pro_sup_r	wrist_flex_r	wrist_dev_r	arm_flex_l	arm_add_l	arm_rot_l	elbow_flex_l	pro_sup_l	wrist_flex_l	wrist_dev_l
5	0.1082594642842268	-0.8403179758940038	-147.3431037698599	0	0.9399999999999999	0	31.48046475733872	-11.88685728876869	0	46.82517818495609	0.8172535321605061	-6.360296694855151	0	0	31.48046475733872	-11.88685728876869	0	46.82517818495609	0.8172535321605061	-6.360296694855151	0	0	2.523291385176253	-2.919373502631683	1.922838110683251	-55.26336397247336	4.162285313108548	32.52203757256922	44.8887498853363	54.33683457014527	0	0	0	-5.70395800141197	0	64.65860761517985	54.33683457014527	0	0
5.01	0.1148359520798406	-0.8403036179035244	-147.3306214024914	0	0.9399999999999999	0	31.48486444489983	-11.88477297885864	0	46.82859384408846	0.8173131466584918	-6.358337392231192	0	0	31.48486444489983	-11.88477297885864	0	46.82859384408846	0.8173131466584918	-6.358337392231192	0	0	2.532446679533846	-2.9156360597711	1.903456460214318	-54.76577570242323	4.391877979939636	33.06319304944932	44.19272065438946	54.32833312498003	0	0	0	-5.705467004444339	0	64.66192716223605	54.32833312498003	0	0
5.02	0.07804233367297546	-0.8711348194926946	-147.330200605752	0	0.9399999999999999	0	31.48943642838819	-11.88261069927874	0	46.83214605677819	0.8173751444656587	-6.356305877855273	0	0	31.48943642838819	-11.88261069927874	0	46.83214605677819	0.8173751444656587	-6.356305877855273	0	0	2.440296444428207	-2.921487656156728	1.916621965026266	-55.73333045800763	2.867935010364458	32.81026378999231	45.93529748878148	54.31951161249309	0	0	0	-5.707036295642897	0	64.66537682959786	54.31951161249309	0	0
5.03	0.1123381008976754	-0.8566265520345507	-147.3289538062535	0	0.9399999999999999	0	31.5722154840889	-11.85454073781589	0	46.91254624874849	0.8187783925347759	-6.33188602615995	0	0	31.5722154840889	-11.85454073781589	0	46.91254624874849	0.8187783925347759	-6.33188602615995	0	0	2.507010239993212	-2.913499528419317	1.914386763324567	-59.97708200172718	0.05391479459370734	33.0783356508934	51.24428983480435	54.19990884775984	0	0	0	-5.740994839630812	0	64.72828989209141	54.19990884775984	0	0
5.04	0.1260854021940336	-0.8525849099223546	-147.3129431943329	0	0.9399999999999999	0	31.57687398017278	-11.85235564644999	0	46.91616199926792	0.8188414992862707	-6.329839782609333	0	0	31.57687398017278	-11.85235564644999	0	46.91616199926792	0.8188414992862707	-6.329839782609333	0	0	2.52385138472418	-2.913658840438593	1.893392304772026	-59.26184861431791	0.1458675224804971	33.61448218152001	50.43553197378447	54.19098505803544	0	0	0	-5.742597527451879	0	64.73180554161439	54.19098505803544	0	0
5.05	0.1203877177491884	-0.8583240817294194	-147.3279242811888	0	0.9399999999999999	0	31.58182187471326	-11.85003534303539	0	46.92000063236701	0.8189084960726257	-6.327667466252686	0	0	31.58182187471326	-11.85003534303539	0	46.92000063236701	0.8189084960726257	-6.327667466252686	0	0	2.507745454049641	-2.910455694213182	1.916654612943504	-58.1985244328696	-0.0540684477997194	33.4242516741661	49.55222985013573	54.18150848362784	0	0	0	-5.744299416864177	0	64.73553959203363	54.18150848362784	0	0
5.06	0.1532602355778049	-0.8840239977292017	-147.3591219740328	0	0.9399999999999999	0	31.58353551537547	-11.84923567096325	0	46.92133478289044	0.8189317813919769	-6.326919657367404	0	0	31.58353551537547	-11.84923567096325	0	46.92133478289044	0.8189317813919769	-6.326919657367404	0	0	2.522742851978611	-2.944148542962388	1.956760446633772	-57.91685279605954	-0.3464780269064805	33.32911234082676	49.44730890142087	54.17824042205722	0	0	0	-5.74489055850071	0	64.736832980063	54.17824042205722	0	0
5.07	0.1203219987364153	-0.898132485990053	-147.3310858699652	0	0.9399999999999999	0	31.58810880448738	-11.84709772271732	0	46.92488889689813	0.8189938123834024	-6.32491986859699	0	0	31.58810880448738	-11.84709772271732	0	46.92488889689813	0.8189938123834024	-6.32491986859699	0	0	2.439902939061614	-2.93619560961459	1.925527078506888	-58.58461323432604	-1.162861234137455	33.1973161233263	50.50954667541867	54.16950495452064	0	0	0	-5.74646606934655	0	64.74028456211103	54.16950495452064	0	0
5.08	0.1415531273146119	-0.904316232882276	-147.333121410771	0	0.9399999999999999	0	31.59149051141254	-11.84551851462472	0	46.92751787043392	0.8190396966275497	-6.323443285603627	0	0	31.59149051141254	-11.84551851462472	0	46.92751787043392	0.8190396966275497	-6.323443285603627	0	0	2.444744954473617	-2.941254673790391	1.937727116391971	-58.8073674790409	-1.250203226848543	33.14388382444621	50.72760456713367	54.16305140477677	0	0	0	-5.747631526360405	0	64.74283687800842	54.16305140477677	0	0
5.09	0.1578034085689662	-0.899046280720358	-147.331762492753	0	0.9399999999999999	0	31.59895574525234	-11.84202974832364	0	46.93331401057792	0.8191408583569694	-6.32018144467053	0	0	31.59895574525234	-11.84202974832364	0	46.93331401057792	0.8191408583569694	-6.32018144467053	0	0	2.455214181933886	-2.940116654984712	1.934709525855483	-61.66996547183779	-3.09328784856757	32.56730933802098	54.31709489446294	54.14879514496468	0	0	0	-5.750202123791354	0	64.74847107121244	54.14879514496468	0	0
5.1	0.1626178846829967	-0.9103760056739585	-147.339641353355	0	0.9399999999999999	0	31.60429241558564	-11.83953767315578	0	46.93745685723608	0.8192131646715596	-6.317852428781516	0	0	31.60429241558564	-11.83953767315578	0	46.93745685723608	0.8192131646715596	-6.317852428781516	0	0	2.439166918685606	-2.940009459906665	1.950789244767932	-62.00258613756726	-3.498205160038563	32.49408523686422	54.73728030141265	54.13861034980619	0	0	0	-5.752039905449895	0	64.75249883678424	54.13861034980619	0	0
5.11	0.1754835511086547	-0.9238710386585159	-147.3501514457556	0	0.9399999999999999	0	31.60861042203912	-11.83752363805279	0	46.94080999830432	0.8192716880234843	-6.315971001331778	0	0	31.60861042203912	-11.83752363805279	0	46.94080999830432	0.8192716880234843	-6.315971001331778	0	0	2.436214437094739	-2.94919987414228	1.95928372911276	-62.34422629514196	-3.847417670575644	32.21918233083367	55.11191789522694	54.13037778644424	0	0	0	-5.753527488618239	0	64.75575785536374	54.13037778644424	0	0
5.12	0.1791399126089272	-0.9355333816747092	-147.3522396722487	0	0.9399999999999999	0	31.61278637849652	-11.83557790629514	0	46.94405376630777	0.8193283024553154	-6.314154099243321	0	0	31.61278637849652	-11.83557790629514	0	46.94405376630777	0.8193283024553154	-6.314154099243321	0	0	2.412257821110146	-2.955783935617338	1.970858105619691	-63.03456481819541	-4.228045613689652	32.17309134002447	55.78809657330363	54.12242313185998	0	0	0	-5.754966644772723	0	64.75890972399766	54.12242313185998	0	0
5.13	0.2169461753667033	-0.9153506479907983	-147.3459573891158	0	0.9399999999999999	0	31.64602649163972	-11.82390366148863	0	46.97559855475188	0.8198788628755102	-6.303912238452312	0	0	31.64602649163972	-11.82390366148863	0	46.97559855475188	0.8198788628755102	-6.303912238452312	0	0	2.452557838517381	-2.93823983110373	1.975377606420175	-64.73206296238563	-3.825399442456289	30.67841551855014	57.1990530390955	54.07292341604949	0	0	0	-5.768381748607758	0	64.78415526221924	54.07292341604949	0	0
5.14	0.1999524371002268	-0.9301402223388536	-147.3475616203387	0	0.9399999999999999	0	31.87579577906148	-11.74508140580574	0	47.200472654764	0.8238036563231805	-6.235081970730277	0	0	31.87579577906148	-11.74508140580574	0	47.200472654764	0.8238036563231805	-6.235081970730277	0	0	2.425845658268489	-2.939477997756513	1.971709975758722	-72.05633403765293	5.086137118344204	16.48999814489576	62.64995740796753	53.7382515011804	0	0	0	-5.862616069044821	0	64.95878773274471	53.7382515011804	0	0
5.15	0.1810291020346052	-0.9409994178950406	-147.3523949419846	0	0.9399999999999999	0	31.97446086531633	-11.71147243197501	0	47.29593322849579	0.8254697576406431	-6.205845833132735	0	0	31.97446086531633	-11.71147243197501	0	47.29593322849579	0.8254697576406431	-6.205845833132735	0	0	2.385702066994149	-2.920401378148059	1.95817123046428	-80.74967527268521	8.553489850237812	7.800960265434022	71.54571213762246	53.59523195920693	0	0	0	-5.903065785479108	0	65.03377617423546	53.59523195920693	0	0
5.16	0.2044966129237832	-0.947096599449766	-147.353271540145	0	0.9399999999999999	0	31.97885864970601	-11.70950461308929	0	47.29934288175712	0.8255292673164047	-6.204037442001282	0	0	31.97885864970601	-11.70950461308929	0	47.29934288175712	0.8255292673164047	-6.204037442001282	0	0	2.395478932129905	-2.937501566748615	1.961969504914848	-81.63120447413507	8.346744712030096	6.618841587293444	72.14876930474179	53.58713922378924	0	0	0	-5.90459971394636	0	65.03709847684183	53.58713922378924	0	0
5.17	0.2368067421749371	-0.9427835372769539	-147.3600439065996	0	0.9399999999999999	0	31.9824375578066	-11.70790742041436	0	47.30212212224941	0.8255777742136999	-6.202570687369096	0	0	31.9824375578066	-11.70790742041436	0	47.30212212224941	0.8255777742136999	-6.202570687369096	0	0	2.473663142531425	-2.948173265583784	1.973200303366045	-81.2341726519648	7.430311931393939	7.227619953228543	71.12486711160489	53.58056822739817	0	0	0	-5.905849766468111	0	65.03980230916153	53.58056822739817	0	0
5.18	0.2202029304233898	-0.9673719709227812	-147.354206796479	0	0.9399999999999999	0	31.98675733432438	-11.70597679950694	0	47.30547103002333	0.8256362236807006	-6.200797505895586	0	0	31.98675733432438	-11.70597679950694	0	47.30547103002333	0.8256362236807006	-6.200797505895586	0	0	2.419975117769433	-2.9349440544582	1.956811629322505	-81.75812372879905	6.889199506095387	7.414024403727343	71.29824219854412	53.57262669917962	0	0	0	-5.907356760351639	0	65.04306574068049	53.57262669917962	0	0
5.19	0.2262307991748017	-0.9666564066916259	-147.3604095561089	0	0.9399999999999999	0	31.99048448728077	-11.70431313363058	0	47.30836195502548	0.8256866798404161	-6.199270158800835	0	0	31.99048448728077	-11.70431313363058	0	47.30836195502548	0.8256866798404161	-6.199270158800835	0	0	2.419086846345645	-2.932722852349711	1.970821789451121	-82.10358294389516	6.681198587677471	7.060224832707312	71.53618413650538	53.56578192621542	0	0	0	-5.90865768847397	0	65.04588153534303	53.56578192621542	0	0
5.2	0.2085538534825924	-0.9910873656098602	-147.376398769274	0	0.9399999999999999	0	31.99350510665444	-11.70296460802127	0	47.31070306240009	0.8257275398722458	-6.198032333431054	0	0	31.99350510665444	-11.70296460802127	0	47.31070306240009	0.8257275398722458	-6.198032333431054	0	0	2.384582803268944	-2.938301555327953	1.989238714646957	-82.71620899845544	6.428203903965677	6.969511800799526	71.96103760065537	53.56023356121945	0	0	0	-5.909711487501255	0	65.0481635322375	53.56023356121945	0	0
5.21	0.2405707656565081	-0.9793901809604311	-147.3701855797472	0	0.9399999999999999	0	31.99788915957316	-11.70101124326279	0	47.31410523596467	0.8257869190026722	-6.196240232449229	0	0	31.99788915957316	-11.70101124326279	0	47.31410523596467	0.8257869190026722	-6.196240232449229	0	0	2.447038766115664	-2.943098226251266	1.983122074358378	-82.2185246670083	5.62910838210002	6.777003066395599	71.21667528006614	53.55219449937152	0	0	0	-5.911242658647602	0	65.05147571145046	53.55219449937152	0	0
5.22	0.2296086787476644	-0.9858737121345496	-147.3685622837312	0	0.9399999999999999	0	32.05173011982576	-11.68414879456421	0	47.36669230448311	0.8267047364922907	-6.182002072097415	0	0	32.05173011982576	-11.68414879456421	0	47.36669230448311	0.8267047364922907	-6.182002072097415	0	0	2.441765521256916	-2.933092819197611	1.999075053448145	-81.07437337707896	3.580052489882693	5.566314480422575	70.30332560436695	53.47917492835816	0	0	0	-5.933841576064164	0	65.09243693366767	53.47917492835816	0	0
5.23	0.2362371608838885	-0.9903645667893121	-147.3700563399434	0	0.9399999999999999	0	32.11248650971239	-11.66511472843247	0	47.42587057212795	0.8277375921083195	-6.165933342089851	0	0	32.11248650971239	-11.66511472843247	0	47.42587057212795	0.8277375921083195	-6.165933342089851	0	0	2.418629762180302	-2.934440158362173	2.004873983656176	-77.98243527929991	2.11581641432902	3.587274078490851	67.51808164030726	53.39674313135178	0	0	0	-5.959329660056866	0	65.13865835221318	53.39674313135178	0	0
